<?xml version="1.0"?>
<!--Icons from directory ""-->
<svg xmlns="http://www.w3.org/2000/svg" width="64" height="2688" viewBox="0 0 64 2688"><svg viewBox="0 0 40 40" width="64" height="64" id="arrow_down" y="0"><path fill="#231815" d="M20 23.7c-.7 0-1.3-.3-1.8-.7l-4.6-4.6c-.2-.2-.2-.5 0-.7s.5-.2.7 0l4.6 4.6c.6.6 1.5.6 2.1 0l4.6-4.6c.2-.2.5-.2.7 0s.2.5 0 .7L21.7 23c-.4.4-1 .7-1.7.7z"/></svg><svg viewBox="0 0 40 40" width="64" height="64" id="arrow_down__yellow" y="64"><path fill="#F5B802" d="M20 23.7c-.7 0-1.3-.3-1.8-.7l-4.6-4.6c-.2-.2-.2-.5 0-.7s.5-.2.7 0l4.6 4.6c.6.6 1.5.6 2.1 0l4.6-4.6c.2-.2.5-.2.7 0s.2.5 0 .7L21.7 23c-.4.4-1 .7-1.7.7z"/></svg><svg viewBox="0 0 40 40" width="64" height="64" id="arrow_left" y="128"><path fill="#231815" d="M22 26.5c-.1 0-.3 0-.4-.1L17 21.8c-.5-.5-.7-1.1-.7-1.8s.3-1.3.7-1.8l4.6-4.6c.2-.2.5-.2.7 0s.2.5 0 .7l-4.6 4.6c-.6.6-.6 1.5 0 2.1l4.6 4.6c.2.2.2.5 0 .7 0 .2-.2.2-.3.2z"/></svg><svg viewBox="0 0 40 40" width="64" height="64" id="arrow_left__yellow" y="192"><path fill="#F5B802" d="M22 26.5c-.1 0-.3 0-.4-.1L17 21.8c-.5-.5-.7-1.1-.7-1.8s.3-1.3.7-1.8l4.6-4.6c.2-.2.5-.2.7 0s.2.5 0 .7l-4.6 4.6c-.6.6-.6 1.5 0 2.1l4.6 4.6c.2.2.2.5 0 .7 0 .2-.2.2-.3.2z"/></svg><svg viewBox="0 0 40 40" width="64" height="64" id="arrow_right" y="256"><path fill="#231815" d="M18 26.5c-.1 0-.3 0-.4-.1-.2-.2-.2-.5 0-.7l4.6-4.6c.6-.6.6-1.5 0-2.1l-4.6-4.6c-.2-.2-.2-.5 0-.7s.5-.2.7 0l4.6 4.6c.5.5.7 1.1.7 1.8s-.3 1.3-.7 1.8l-4.6 4.6H18z"/></svg><svg viewBox="0 0 40 40" width="64" height="64" id="arrow_right__yellow" y="320"><path fill="#F5B802" d="M18 26.5c-.1 0-.3 0-.4-.1-.2-.2-.2-.5 0-.7l4.6-4.6c.6-.6.6-1.5 0-2.1l-4.6-4.6c-.2-.2-.2-.5 0-.7s.5-.2.7 0l4.6 4.6c.5.5.7 1.1.7 1.8s-.3 1.3-.7 1.8l-4.6 4.6H18z"/></svg><svg viewBox="0 0 40 40" width="64" height="64" id="arrow_up" y="384"><path fill="#231815" d="M26 22.5c-.1 0-.3 0-.4-.1L21 17.8c-.6-.6-1.5-.6-2.1 0l-4.6 4.6c-.2.2-.5.2-.7 0s-.2-.5 0-.7l4.6-4.6c.9-.9 2.6-.9 3.5 0l4.6 4.6c.2.2.2.5 0 .7 0 .1-.2.1-.3.1z"/></svg><svg viewBox="0 0 40 40" width="64" height="64" id="arrow_up__yellow" y="448"><path fill="#F5B802" d="M26 22.5c-.1 0-.3 0-.4-.1L21 17.8c-.6-.6-1.5-.6-2.1 0l-4.6 4.6c-.2.2-.5.2-.7 0s-.2-.5 0-.7l4.6-4.6c.9-.9 2.6-.9 3.5 0l4.6 4.6c.2.2.2.5 0 .7 0 .1-.2.1-.3.1z"/></svg><svg viewBox="0 0 40 40" width="64" height="64" id="basketball" y="512"><path fill="#231815" d="M20 28.5c-2.3 0-4.4-.9-6-2.5-3.3-3.3-3.3-8.7 0-12 1.6-1.6 3.7-2.5 6-2.5s4.4.9 6 2.5c3.3 3.3 3.3 8.7 0 12-1.6 1.6-3.7 2.5-6 2.5zm0-16c-2 0-3.9.8-5.3 2.2-2.9 2.9-2.9 7.7 0 10.6 1.4 1.4 3.3 2.2 5.3 2.2s3.9-.8 5.3-2.2c2.9-2.9 2.9-7.7 0-10.6-1.4-1.4-3.3-2.2-5.3-2.2z"/><path fill="#231815" d="M13.99 25.303L25.302 13.99l.707.707L14.696 26.01zM12.3 17.9c1.6.5 3.4.1 4.5-1.1 1.2-1.2 1.6-2.9 1.1-4.5l1-.3c.6 2 .1 4.1-1.3 5.5-1 1-2.4 1.6-3.9 1.6-.6 0-1.1-.1-1.7-.3l.3-.9zM21.1 28c-.6-2-.1-4.1 1.3-5.5 1.4-1.4 3.6-2 5.5-1.3l-.3 1c-1.6-.5-3.4-.1-4.5 1.1s-1.6 2.9-1.1 4.5l-.9.2z"/><g><path fill="#231815" d="M14.697 13.99L26.01 25.302l-.707.707L13.99 14.696z"/></g></svg><svg viewBox="0 0 40 40" width="64" height="64" id="basketball__yellow" y="576"><path fill="#F5B802" d="M20 28.5c-2.3 0-4.4-.9-6-2.5-3.3-3.3-3.3-8.7 0-12 1.6-1.6 3.7-2.5 6-2.5s4.4.9 6 2.5c3.3 3.3 3.3 8.7 0 12-1.6 1.6-3.7 2.5-6 2.5zm0-16c-2 0-3.9.8-5.3 2.2-2.9 2.9-2.9 7.7 0 10.6 1.4 1.4 3.3 2.2 5.3 2.2s3.9-.8 5.3-2.2c2.9-2.9 2.9-7.7 0-10.6-1.4-1.4-3.3-2.2-5.3-2.2z"/><path fill="#F5B802" d="M13.99 25.303L25.302 13.99l.707.707L14.696 26.01zM12.3 17.9c1.6.5 3.4.1 4.5-1.1 1.2-1.2 1.6-2.9 1.1-4.5l1-.3c.6 2 .1 4.1-1.3 5.5-1 1-2.4 1.6-3.9 1.6-.6 0-1.1-.1-1.7-.3l.3-.9zM21.1 28c-.6-2-.1-4.1 1.3-5.5 1.4-1.4 3.6-2 5.5-1.3l-.3 1c-1.6-.5-3.4-.1-4.5 1.1s-1.6 2.9-1.1 4.5l-.9.2z"/><g><path fill="#F5B802" d="M14.697 13.99L26.01 25.302l-.707.707L13.99 14.696z"/></g></svg><svg viewBox="0 0 40 40" width="64" height="64" id="beer" y="640"><path d="M22.7 28.5h-6.3c-.9 0-1.6-.7-1.6-1.6V19c0-.3.2-.5.5-.5s.5.2.5.5v7.9c0 .3.3.6.6.6h6.3c.3 0 .6-.3.6-.6V19c0-.3.2-.5.5-.5s.5.2.5.5v7.9c0 .8-.7 1.6-1.6 1.6z"/><path d="M23.8 24.7h1.8c.5 0 .9-.4.9-.9v-4.5c0-.5-.4-.9-.9-.9H25v-1h.5c1 0 1.9.8 1.9 1.9v4.5c0 1-.8 1.9-1.9 1.9h-1.8v-1z"/><path d="M23 19.4c-.6 0-1.3-.2-1.8-.5-1 .7-2.4.7-3.4.1-.5.3-1.1.5-1.7.5-1.5 0-2.8-1-2.8-2.3 0-.3.1-.6.2-.9-.2-.3-.2-.6-.2-.9 0-1.3 1.3-2.3 2.8-2.3.6 0 1.2.2 1.7.5 1-.6 2.5-.6 3.4.1.5-.3 1.1-.5 1.8-.5 1.5 0 2.8 1 2.8 2.3 0 .3-.1.6-.2.9.2.3.2.6.2.9 0 1.1-1.3 2.1-2.8 2.1zm-1.8-1.6c.1 0 .3 0 .3.1.3.3.9.5 1.4.5 1 0 1.8-.6 1.8-1.3 0-.2-.1-.4-.2-.6-.1-.2-.1-.4 0-.6.1-.2.2-.4.2-.6 0-.7-.8-1.3-1.8-1.3-.5 0-1.1.2-1.4.5-.2.2-.5.2-.7 0-.7-.6-2-.7-2.8-.1-.2.2-.5.2-.6 0-.3-.3-.8-.5-1.3-.5-1 0-1.8.6-1.8 1.3 0 .2.1.4.2.6.1.2.1.4 0 .6-.1.2-.2.4-.2.6 0 .7.8 1.3 1.8 1.3.5 0 1-.2 1.3-.5.2-.2.5-.2.6 0 .7.6 2.1.6 2.8-.1.2.1.3.1.4.1z"/><g><path d="M16.9 28v-7.1c0-.3.2-.5.5-.5s.5.2.5.5V28h-1zM19 28v-7.1c0-.3.2-.5.5-.5s.5.2.5.5V28h-1zM21.2 28v-7.1c0-.3.2-.5.5-.5s.5.2.5.5V28h-1z"/></g></svg><svg viewBox="0 0 40 40" width="64" height="64" id="beer__yellow" y="704"><path fill="#F5B802" d="M22.7 28.5h-6.3c-.9 0-1.6-.7-1.6-1.6V19c0-.3.2-.5.5-.5s.5.2.5.5v7.9c0 .3.3.6.6.6h6.3c.3 0 .6-.3.6-.6V19c0-.3.2-.5.5-.5s.5.2.5.5v7.9c0 .8-.7 1.6-1.6 1.6z"/><path fill="#F5B802" d="M23.8 24.7h1.8c.5 0 .9-.4.9-.9v-4.5c0-.5-.4-.9-.9-.9H25v-1h.5c1 0 1.9.8 1.9 1.9v4.5c0 1-.8 1.9-1.9 1.9h-1.8v-1z"/><path fill="#F5B802" d="M23 19.4c-.6 0-1.3-.2-1.8-.5-1 .7-2.4.7-3.4.1-.5.3-1.1.5-1.7.5-1.5 0-2.8-1-2.8-2.3 0-.3.1-.6.2-.9-.2-.3-.2-.6-.2-.9 0-1.3 1.3-2.3 2.8-2.3.6 0 1.2.2 1.7.5 1-.6 2.5-.6 3.4.1.5-.3 1.1-.5 1.8-.5 1.5 0 2.8 1 2.8 2.3 0 .3-.1.6-.2.9.2.3.2.6.2.9 0 1.1-1.3 2.1-2.8 2.1zm-1.8-1.6c.1 0 .3 0 .3.1.3.3.9.5 1.4.5 1 0 1.8-.6 1.8-1.3 0-.2-.1-.4-.2-.6-.1-.2-.1-.4 0-.6.1-.2.2-.4.2-.6 0-.7-.8-1.3-1.8-1.3-.5 0-1.1.2-1.4.5-.2.2-.5.2-.7 0-.7-.6-2-.7-2.8-.1-.2.2-.5.2-.6 0-.3-.3-.8-.5-1.3-.5-1 0-1.8.6-1.8 1.3 0 .2.1.4.2.6.1.2.1.4 0 .6-.1.2-.2.4-.2.6 0 .7.8 1.3 1.8 1.3.5 0 1-.2 1.3-.5.2-.2.5-.2.6 0 .7.6 2.1.6 2.8-.1.2.1.3.1.4.1z"/><g><path fill="#F5B802" d="M16.9 28v-7.1c0-.3.2-.5.5-.5s.5.2.5.5V28h-1zM19 28v-7.1c0-.3.2-.5.5-.5s.5.2.5.5V28h-1zM21.2 28v-7.1c0-.3.2-.5.5-.5s.5.2.5.5V28h-1z"/></g></svg><svg viewBox="0 0 40 40" width="64" height="64" id="cake" y="768"><path d="M14.5 20.5v-2c0-.8.7-1.5 1.5-1.5h8c.8 0 1.5.7 1.5 1.5v2h-11zm1-.5h9v-1.5c0-.3-.2-.5-.5-.5h-8c-.3 0-.5.2-.5.5V20z"/><path d="M26.4 27H13.6c-.6 0-1.1-.5-1.1-1.1v-3.4c0-1.4 1.1-2.5 2.5-2.5h10c1.4 0 2.5 1.1 2.5 2.5v3.4c0 .6-.5 1.1-1.1 1.1zM15 21c-.8 0-1.5.7-1.5 1.5v3.4c0 .1.1.1.1.1h12.7c.1 0 .1-.1.1-.1v-3.4c0-.8-.7-1.5-1.5-1.5H15zM19.5 17.5v-2c0-.3.2-.5.5-.5s.5.2.5.5v2h-1zM22.5 17.5v-2c0-.3.2-.5.5-.5s.5.2.5.5v2h-1zM16.5 17.5v-2c0-.3.2-.5.5-.5s.5.2.5.5v2h-1zM20 13c-.1 0-.3 0-.4-.2-.1-.1-.1-.2-.1-.3s0-.3.1-.4c.2-.2.5-.2.7 0 .1.1.2.2.2.4 0 .1 0 .3-.1.3-.1.2-.3.2-.4.2zM23 13c-.1 0-.3 0-.4-.2-.1-.1-.1-.2-.1-.3s0-.3.1-.4c.2-.2.5-.2.7 0 .1.1.2.2.2.4s0 .3-.1.3c-.1.2-.3.2-.4.2zM17 13c-.1 0-.3 0-.4-.2-.1-.1-.1-.2-.1-.3s0-.3.1-.4c.2-.2.5-.2.7 0 .1.1.2.2.2.4s0 .3-.1.3c-.1.2-.3.2-.4.2z"/></svg><svg viewBox="0 0 40 40" width="64" height="64" id="cake__yellow" y="832"><path fill="#F5B802" d="M14.5 20.5v-2c0-.8.7-1.5 1.5-1.5h8c.8 0 1.5.7 1.5 1.5v2h-11zm1-.5h9v-1.5c0-.3-.2-.5-.5-.5h-8c-.3 0-.5.2-.5.5V20z"/><path fill="#F5B802" d="M26.4 27H13.6c-.6 0-1.1-.5-1.1-1.1v-3.4c0-1.4 1.1-2.5 2.5-2.5h10c1.4 0 2.5 1.1 2.5 2.5v3.4c0 .6-.5 1.1-1.1 1.1zM15 21c-.8 0-1.5.7-1.5 1.5v3.4c0 .1.1.1.1.1h12.7c.1 0 .1-.1.1-.1v-3.4c0-.8-.7-1.5-1.5-1.5H15zM19.5 17.5v-2c0-.3.2-.5.5-.5s.5.2.5.5v2h-1zM22.5 17.5v-2c0-.3.2-.5.5-.5s.5.2.5.5v2h-1zM16.5 17.5v-2c0-.3.2-.5.5-.5s.5.2.5.5v2h-1zM20 13c-.1 0-.3 0-.4-.2-.1-.1-.1-.2-.1-.3s0-.3.1-.4c.2-.2.5-.2.7 0 .1.1.2.2.2.4 0 .1 0 .3-.1.3-.1.2-.3.2-.4.2zM23 13c-.1 0-.3 0-.4-.2-.1-.1-.1-.2-.1-.3s0-.3.1-.4c.2-.2.5-.2.7 0 .1.1.2.2.2.4s0 .3-.1.3c-.1.2-.3.2-.4.2zM17 13c-.1 0-.3 0-.4-.2-.1-.1-.1-.2-.1-.3s0-.3.1-.4c.2-.2.5-.2.7 0 .1.1.2.2.2.4s0 .3-.1.3c-.1.2-.3.2-.4.2z"/></svg><svg viewBox="0 0 40 40" width="64" height="64" id="candle" y="896"><path d="M22 28.8h-4c-.8 0-1.5-.7-1.5-1.5v-8c0-.8.7-1.5 1.5-1.5h4c.8 0 1.5.7 1.5 1.5v8c0 .9-.7 1.5-1.5 1.5zm-4-10c-.3 0-.5.2-.5.5v8c0 .3.2.5.5.5h4c.3 0 .5-.2.5-.5v-8c0-.3-.2-.5-.5-.5h-4z"/><path d="M20 18.8c-1.8 0-3.1-1.1-3.1-2.7 0-1 .8-1.8 1.7-2.7.6-.6 1.3-1.3 1.6-2 .1-.2.4-.4.6-.3.2.1.4.3.3.6-.4 1.6.1 2 .7 2.4.5.4 1.1.8 1.1 1.9.2 1.7-1.1 2.8-2.9 2.8zm.2-5.5l-.8.8c-.7.7-1.4 1.4-1.4 2 0 1.2 1 1.7 2.1 1.7s2.1-.5 2.1-1.7c0-.6-.3-.8-.7-1.1-.6-.3-1.2-.7-1.3-1.7z"/><path d="M22.9 21.1c-.1 0-.2 0-.3-.1l-3.3-2.2c-.1-.1-.2-.3-.2-.4 0-.1 0-.2.1-.3.2-.2.5-.3.7-.1l3.3 2.2c.1.1.2.3.2.4 0 .1 0 .2-.1.3-.1.1-.3.2-.4.2zM22.9 24.1c-.1 0-.2 0-.3-.1l-5.7-3.8c-.2-.2-.3-.5-.1-.7.2-.2.5-.3.7-.1l5.7 3.8c.2.2.3.5.1.7-.1.1-.3.2-.4.2zM22.9 27.1c-.1 0-.2 0-.3-.1l-5.7-3.8c-.2-.2-.3-.5-.1-.7.2-.2.5-.3.7-.1l5.7 3.8c.2.2.3.5.1.7-.1.1-.3.2-.4.2zM21.1 28.8c-.1 0-.2 0-.3-.1l-3.9-2.6c-.2-.2-.3-.5-.1-.7.2-.2.5-.3.7-.1l3.9 2.6c.2.2.3.5.1.7-.1.2-.3.2-.4.2z"/></svg><svg viewBox="0 0 40 40" width="64" height="64" id="candle__yellow" y="960"><path fill="#F5B802" d="M22 28.8h-4c-.8 0-1.5-.7-1.5-1.5v-8c0-.8.7-1.5 1.5-1.5h4c.8 0 1.5.7 1.5 1.5v8c0 .9-.7 1.5-1.5 1.5zm-4-10c-.3 0-.5.2-.5.5v8c0 .3.2.5.5.5h4c.3 0 .5-.2.5-.5v-8c0-.3-.2-.5-.5-.5h-4z"/><path fill="#F5B802" d="M20 18.8c-1.8 0-3.1-1.1-3.1-2.7 0-1 .8-1.8 1.7-2.7.6-.6 1.3-1.3 1.6-2 .1-.2.4-.4.6-.3.2.1.4.3.3.6-.4 1.6.1 2 .7 2.4.5.4 1.1.8 1.1 1.9.2 1.7-1.1 2.8-2.9 2.8zm.2-5.5l-.8.8c-.7.7-1.4 1.4-1.4 2 0 1.2 1 1.7 2.1 1.7s2.1-.5 2.1-1.7c0-.6-.3-.8-.7-1.1-.6-.3-1.2-.7-1.3-1.7z"/><path fill="#F5B802" d="M22.9 21.1c-.1 0-.2 0-.3-.1l-3.3-2.2c-.1-.1-.2-.3-.2-.4 0-.1 0-.2.1-.3.2-.2.5-.3.7-.1l3.3 2.2c.1.1.2.3.2.4 0 .1 0 .2-.1.3-.1.1-.3.2-.4.2zM22.9 24.1c-.1 0-.2 0-.3-.1l-5.7-3.8c-.2-.2-.3-.5-.1-.7.2-.2.5-.3.7-.1l5.7 3.8c.2.2.3.5.1.7-.1.1-.3.2-.4.2zM22.9 27.1c-.1 0-.2 0-.3-.1l-5.7-3.8c-.2-.2-.3-.5-.1-.7.2-.2.5-.3.7-.1l5.7 3.8c.2.2.3.5.1.7-.1.1-.3.2-.4.2zM21.1 28.8c-.1 0-.2 0-.3-.1l-3.9-2.6c-.2-.2-.3-.5-.1-.7.2-.2.5-.3.7-.1l3.9 2.6c.2.2.3.5.1.7-.1.2-.3.2-.4.2z"/></svg><svg viewBox="0 0 40 40" width="64" height="64" id="clock" y="1024"><path fill="#231815" d="M20 28.5c-4.7 0-8.5-3.8-8.5-8.5s3.8-8.5 8.5-8.5 8.5 3.8 8.5 8.5-3.8 8.5-8.5 8.5zm0-16c-4.1 0-7.5 3.4-7.5 7.5s3.4 7.5 7.5 7.5 7.5-3.4 7.5-7.5-3.4-7.5-7.5-7.5z"/><path fill="#231815" d="M22 20.5h-1.4c-.6 0-1.1-.5-1.1-1.1V16c0-.3.2-.5.5-.5s.5.2.5.5v3.4c0 .1.1.1.1.1H22c.3 0 .5.2.5.5s-.2.5-.5.5zM20 14.5c-.3 0-.5-.2-.5-.5v-1.5c0-.3.2-.5.5-.5s.5.2.5.5V14c0 .3-.2.5-.5.5zM27.5 20.5H26c-.3 0-.5-.2-.5-.5s.2-.5.5-.5h1.5c.3 0 .5.2.5.5s-.2.5-.5.5zM14 20.5h-1.5c-.3 0-.5-.2-.5-.5s.2-.5.5-.5H14c.3 0 .5.2.5.5s-.2.5-.5.5zM20 28c-.3 0-.5-.2-.5-.5V26c0-.3.2-.5.5-.5s.5.2.5.5v1.5c0 .3-.2.5-.5.5z"/></svg><svg viewBox="0 0 40 40" width="64" height="64" id="clock__yellow" y="1088"><path fill="#F5B802" d="M20 28.5c-4.7 0-8.5-3.8-8.5-8.5s3.8-8.5 8.5-8.5 8.5 3.8 8.5 8.5-3.8 8.5-8.5 8.5zm0-16c-4.1 0-7.5 3.4-7.5 7.5s3.4 7.5 7.5 7.5 7.5-3.4 7.5-7.5-3.4-7.5-7.5-7.5z"/><path fill="#F5B802" d="M22 20.5h-1.4c-.6 0-1.1-.5-1.1-1.1V16c0-.3.2-.5.5-.5s.5.2.5.5v3.4c0 .1.1.1.1.1H22c.3 0 .5.2.5.5s-.2.5-.5.5zM20 14.5c-.3 0-.5-.2-.5-.5v-1.5c0-.3.2-.5.5-.5s.5.2.5.5V14c0 .3-.2.5-.5.5zM27.5 20.5H26c-.3 0-.5-.2-.5-.5s.2-.5.5-.5h1.5c.3 0 .5.2.5.5s-.2.5-.5.5zM14 20.5h-1.5c-.3 0-.5-.2-.5-.5s.2-.5.5-.5H14c.3 0 .5.2.5.5s-.2.5-.5.5zM20 28c-.3 0-.5-.2-.5-.5V26c0-.3.2-.5.5-.5s.5.2.5.5v1.5c0 .3-.2.5-.5.5z"/></svg><svg viewBox="0 0 40 40" width="64" height="64" id="cocktail" y="1152"><path d="M20 22.5c-.9 0-1.8-.4-2.5-1l-3.2-3.2c-.2-.2-.3-.5-.2-.8.1-.3.4-.5.7-.5H25c.3 0 .6.2.7.5.1.3.1.6-.2.8l-3.2 3.2c-.5.6-1.4 1-2.3 1zM15.5 18l2.8 2.8c.9.9 2.6.9 3.5 0l2.8-2.8h-9.1z"/><path d="M19.5 22h1v4.9h-1z"/><path d="M22.7 27.4h-5.5c-.3 0-.5-.2-.5-.5s.2-.5.5-.5h5.5c.3 0 .5.2.5.5s-.2.5-.5.5zM16.5 19.2h7v1h-7zM22.1 17.8h-.2c-.2-.1-.4-.4-.2-.7l1.2-2.4c.1-.2.4-.4.7-.2.2.1.4.4.2.7l-1.2 2.4c-.1.1-.3.2-.5.2z"/><path d="M26.4 16.9h-.2l-6.4-3.1c-.2-.1-.4-.4-.2-.7.3-.7 1.4-.7 1.8-.7 1.2 0 2.7.3 2.7.3.1 0 .1 0 .2.1 1.2.9 3.1 2.7 2.5 3.8l-.3.3h-.1zm-5-3.5l4.2 2c-.4-.5-1.1-1.2-1.7-1.7-.4-.1-1.6-.3-2.5-.3z"/></svg><svg viewBox="0 0 40 40" width="64" height="64" id="cocktail__yellow" y="1216"><path fill="#F5B802" d="M20 22.5c-.9 0-1.8-.4-2.5-1l-3.2-3.2c-.2-.2-.3-.5-.2-.8.1-.3.4-.5.7-.5H25c.3 0 .6.2.7.5.1.3.1.6-.2.8l-3.2 3.2c-.5.6-1.4 1-2.3 1zM15.5 18l2.8 2.8c.9.9 2.6.9 3.5 0l2.8-2.8h-9.1z"/><path fill="#F5B802" d="M19.5 22h1v4.9h-1z"/><path fill="#F5B802" d="M22.7 27.4h-5.5c-.3 0-.5-.2-.5-.5s.2-.5.5-.5h5.5c.3 0 .5.2.5.5s-.2.5-.5.5zM16.5 19.2h7v1h-7zM22.1 17.8h-.2c-.2-.1-.4-.4-.2-.7l1.2-2.4c.1-.2.4-.4.7-.2.2.1.4.4.2.7l-1.2 2.4c-.1.1-.3.2-.5.2z"/><path fill="#F5B802" d="M26.4 16.9h-.2l-6.4-3.1c-.2-.1-.4-.4-.2-.7.3-.7 1.4-.7 1.8-.7 1.2 0 2.7.3 2.7.3.1 0 .1 0 .2.1 1.2.9 3.1 2.7 2.5 3.8l-.3.3h-.1zm-5-3.5l4.2 2c-.4-.5-1.1-1.2-1.7-1.7-.4-.1-1.6-.3-2.5-.3z"/></svg><svg viewBox="0 0 40 40" width="64" height="64" id="coffe_tea" y="1280"><path d="M21.1 26.3h-2.3c-2.5 0-4.6-1.8-5-4.2l-.8-4.4c0-.3 0-.5.2-.7.2-.2.4-.3.7-.3H26c.3 0 .5.1.7.3.2.2.2.5.2.7l-.8 4.4c-.4 2.5-2.5 4.2-5 4.2zm-7-8.5l.7 4.2c.3 2 2 3.4 4 3.4h2.3c2 0 3.7-1.4 4-3.4l.7-4.2H14.1z"/><path d="M25.9 18.4c.5-.5 1.6-.9 2.5 0 .6.6.7 1.8.1 2.7-.4.7-1.1 1.1-1.9 1.1-.3 0-.6-.1-1-.2l.3-1c1 .3 1.5-.1 1.7-.5.3-.5.3-1.2 0-1.5-.5-.5-.9-.1-1.1 0l-.6-.6zM17.8 16.1c-.2 0-.3-.1-.4-.2 0-.1-.3-.5-.3-1.1s.3-1.1.3-1.1.2-.3.2-.6-.2-.6-.2-.6c-.1-.2-.1-.5.2-.7.2-.1.5-.1.7.2 0 .1.3.5.3 1.1 0 .6-.3 1.1-.3 1.1s-.2.3-.2.6.2.6.2.6c.1.2.1.5-.2.7h-.3zM20 16.1c-.2 0-.3-.1-.4-.2 0 0-.3-.5-.3-1.1s.3-1.1.3-1.1.2-.3.2-.6-.2-.6-.2-.6c-.1-.2-.1-.5.2-.7.2-.1.5-.1.7.2 0 .1.3.5.3 1.1 0 .6-.3 1.1-.3 1.1s-.2.3-.2.6.2.6.2.6c.1.2.1.5-.2.7H20zM22.2 16.1c-.2 0-.3-.1-.4-.2 0 0-.3-.5-.3-1.1s.3-1.1.3-1.1.2-.3.2-.6-.2-.6-.2-.6c-.1-.2-.1-.5.2-.7s.5-.1.7.2c0 .1.3.5.3 1.1 0 .6-.3 1.1-.3 1.1s-.2.3-.2.6.2.6.2.6c.1.2.1.5-.2.7h-.3z"/><g><path d="M26.5 28.3h-13c-.3 0-.5-.2-.5-.5s.2-.5.5-.5h13c.3 0 .5.2.5.5s-.2.5-.5.5z"/></g></svg><svg viewBox="0 0 40 40" width="64" height="64" id="coffe_tea__yellow" y="1344"><path fill="#F5B802" d="M21.1 26.3h-2.3c-2.5 0-4.6-1.8-5-4.2l-.8-4.4c0-.3 0-.5.2-.7.2-.2.4-.3.7-.3H26c.3 0 .5.1.7.3.2.2.2.5.2.7l-.8 4.4c-.4 2.5-2.5 4.2-5 4.2zm-7-8.5l.7 4.2c.3 2 2 3.4 4 3.4h2.3c2 0 3.7-1.4 4-3.4l.7-4.2H14.1z"/><path fill="#F5B802" d="M25.9 18.4c.5-.5 1.6-.9 2.5 0 .6.6.7 1.8.1 2.7-.4.7-1.1 1.1-1.9 1.1-.3 0-.6-.1-1-.2l.3-1c1 .3 1.5-.1 1.7-.5.3-.5.3-1.2 0-1.5-.5-.5-.9-.1-1.1 0l-.6-.6zM17.8 16.1c-.2 0-.3-.1-.4-.2 0-.1-.3-.5-.3-1.1s.3-1.1.3-1.1.2-.3.2-.6-.2-.6-.2-.6c-.1-.2-.1-.5.2-.7.2-.1.5-.1.7.2 0 .1.3.5.3 1.1 0 .6-.3 1.1-.3 1.1s-.2.3-.2.6.2.6.2.6c.1.2.1.5-.2.7h-.3zM20 16.1c-.2 0-.3-.1-.4-.2 0 0-.3-.5-.3-1.1s.3-1.1.3-1.1.2-.3.2-.6-.2-.6-.2-.6c-.1-.2-.1-.5.2-.7.2-.1.5-.1.7.2 0 .1.3.5.3 1.1 0 .6-.3 1.1-.3 1.1s-.2.3-.2.6.2.6.2.6c.1.2.1.5-.2.7H20zM22.2 16.1c-.2 0-.3-.1-.4-.2 0 0-.3-.5-.3-1.1s.3-1.1.3-1.1.2-.3.2-.6-.2-.6-.2-.6c-.1-.2-.1-.5.2-.7s.5-.1.7.2c0 .1.3.5.3 1.1 0 .6-.3 1.1-.3 1.1s-.2.3-.2.6.2.6.2.6c.1.2.1.5-.2.7h-.3z"/><g><path fill="#F5B802" d="M26.5 28.3h-13c-.3 0-.5-.2-.5-.5s.2-.5.5-.5h13c.3 0 .5.2.5.5s-.2.5-.5.5z"/></g></svg><svg viewBox="0 0 40 40" width="64" height="64" id="coordinates" y="1408"><path fill="#231815" d="M20 29c-.5 0-1-.3-1.3-.8L14.5 21c-1.8-3.1-.9-7.2 2.1-9 1-.6 2.2-1 3.4-1 2.3 0 4.5 1.2 5.6 3.3 1.1 2 1.2 4.4 0 6.4v.1l-4.3 7.5c-.3.4-.8.7-1.3.7zm0-17c-1 0-2 .3-2.9.8-2.5 1.5-3.3 5-1.7 7.6l4.2 7.3c.1.3.3.3.4.3.1 0 .3 0 .4-.3l4.3-7.4v-.1c1-1.7 1-3.8 0-5.5C23.8 13.1 22 12 20 12z"/><path fill="#231815" d="M20 20c-1.4 0-2.5-1.1-2.5-2.5S18.6 15 20 15s2.5 1.1 2.5 2.5S21.4 20 20 20zm0-4c-.8 0-1.5.7-1.5 1.5S19.2 19 20 19s1.5-.7 1.5-1.5S20.8 16 20 16z"/></svg><svg viewBox="0 0 40 40" width="64" height="64" id="coordinates__yellow" y="1472"><path fill="#F5B802" d="M20 29c-.5 0-1-.3-1.3-.8L14.5 21c-1.8-3.1-.9-7.2 2.1-9 1-.6 2.2-1 3.4-1 2.3 0 4.5 1.2 5.6 3.3 1.1 2 1.2 4.4 0 6.4v.1l-4.3 7.5c-.3.4-.8.7-1.3.7zm0-17c-1 0-2 .3-2.9.8-2.5 1.5-3.3 5-1.7 7.6l4.2 7.3c.1.3.3.3.4.3.1 0 .3 0 .4-.3l4.3-7.4v-.1c1-1.7 1-3.8 0-5.5C23.8 13.1 22 12 20 12z"/><path fill="#F5B802" d="M20 20c-1.4 0-2.5-1.1-2.5-2.5S18.6 15 20 15s2.5 1.1 2.5 2.5S21.4 20 20 20zm0-4c-.8 0-1.5.7-1.5 1.5S19.2 19 20 19s1.5-.7 1.5-1.5S20.8 16 20 16z"/></svg><svg viewBox="0 0 40 40" width="64" height="64" id="cupcake" y="1536"><path d="M26.6 21.4l-1 4.4c-.3 1.2-1.3 2-2.5 2h-6.3c-1.2 0-2.3-.8-2.5-2l-1-4.4 1-.2 1 4.4c.2.7.8 1.2 1.5 1.2h6.3c.7 0 1.4-.5 1.5-1.2l1-4.4 1 .2z"/><path d="M16.6 27.4l-.6-4.2c0-.3.2-.5.4-.6.3 0 .5.2.6.4l.6 4.2-1 .2zM20.5 27.3l.2-4.2c0-.3.2-.5.5-.5s.5.2.5.5l-.2 4.2h-1zM22.4 27.3L23 23c0-.3.3-.5.6-.4.3 0 .5.3.4.6l-.6 4.2-1-.1zM18.5 27.4l-.2-4.2c0-.3.2-.5.5-.5s.5.2.5.5l.2 4.2h-1z"/><g><path d="M20 22.1c-6.5 0-7.7 0-7.7-3.1 0-1.5 1.3-2.2 2.8-3 1.4-.8 3.2-1.7 4.5-3.7.2-.3.7-.3.8 0 1.3 2 3.1 2.9 4.5 3.7 1.5.8 2.8 1.5 2.8 3 0 3.1-1.2 3.1-7.7 3.1zm0-8.6c-1.4 1.8-3.1 2.7-4.5 3.4-1.5.8-2.3 1.2-2.3 2.1 0 2 0 2.1 6.7 2.1s6.7-.1 6.7-2.1c0-.9-.8-1.3-2.3-2.1-1.2-.7-2.9-1.6-4.3-3.4z"/></g><g><path d="M27.3 20c-.4.4-1.1.6-1.9.5-4.3-.3-5.4-4.6-5.7-6.7-.9 1.1-2.4 3-2.3 4.5 0 .5.2 1 .6 1.3 1.6 1.5 4.8 1.5 4.8 1.5.3 0 .5.2.5.5s-.2.5-.5.5c-.1 0-3.7 0-5.5-1.8-.6-.5-.9-1.2-.9-2 0-2.7 3.2-5.9 3.4-6 .1-.1.4-.2.5-.1.2.1.3.3.3.5 0 .3.2 6.5 4.9 6.8.5 0 1 0 1.2-.2.1-.1.1-.2.1-.2 0-.3.2-.5.5-.5V20z"/></g></svg><svg viewBox="0 0 40 40" width="64" height="64" id="cupcake__yellow" y="1600"><path fill="#F5B802" d="M26.6 21.4l-1 4.4c-.3 1.2-1.3 2-2.5 2h-6.3c-1.2 0-2.3-.8-2.5-2l-1-4.4 1-.2 1 4.4c.2.7.8 1.2 1.5 1.2h6.3c.7 0 1.4-.5 1.5-1.2l1-4.4 1 .2z"/><path fill="#F5B802" d="M16.6 27.4l-.6-4.2c0-.3.2-.5.4-.6.3 0 .5.2.6.4l.6 4.2-1 .2zM20.5 27.3l.2-4.2c0-.3.2-.5.5-.5s.5.2.5.5l-.2 4.2h-1zM22.4 27.3L23 23c0-.3.3-.5.6-.4.3 0 .5.3.4.6l-.6 4.2-1-.1zM18.5 27.4l-.2-4.2c0-.3.2-.5.5-.5s.5.2.5.5l.2 4.2h-1z"/><g><path fill="#F5B802" d="M20 22.1c-6.5 0-7.7 0-7.7-3.1 0-1.5 1.3-2.2 2.8-3 1.4-.8 3.2-1.7 4.5-3.7.2-.3.7-.3.8 0 1.3 2 3.1 2.9 4.5 3.7 1.5.8 2.8 1.5 2.8 3 0 3.1-1.2 3.1-7.7 3.1zm0-8.6c-1.4 1.8-3.1 2.7-4.5 3.4-1.5.8-2.3 1.2-2.3 2.1 0 2 0 2.1 6.7 2.1s6.7-.1 6.7-2.1c0-.9-.8-1.3-2.3-2.1-1.2-.7-2.9-1.6-4.3-3.4z"/></g><g><path fill="#F5B802" d="M27.3 20c-.4.4-1.1.6-1.9.5-4.3-.3-5.4-4.6-5.7-6.7-.9 1.1-2.4 3-2.3 4.5 0 .5.2 1 .6 1.3 1.6 1.5 4.8 1.5 4.8 1.5.3 0 .5.2.5.5s-.2.5-.5.5c-.1 0-3.7 0-5.5-1.8-.6-.5-.9-1.2-.9-2 0-2.7 3.2-5.9 3.4-6 .1-.1.4-.2.5-.1.2.1.3.3.3.5 0 .3.2 6.5 4.9 6.8.5 0 1 0 1.2-.2.1-.1.1-.2.1-.2 0-.3.2-.5.5-.5V20z"/></g></svg><svg viewBox="0 0 40 40" width="64" height="64" id="gift" y="1664"><path d="M27.3 20.5H12.7c-.7 0-1.2-.6-1.2-1.2v-1.5c0-.7.6-1.2 1.2-1.2h14.5c.7 0 1.2.6 1.2 1.2v1.5c.1.6-.5 1.2-1.1 1.2zm-14.6-3c-.1 0-.2.1-.2.2v1.5c0 .1.1.2.2.2h14.5c.1 0 .2-.1.2-.2v-1.5c0-.1-.1-.2-.2-.2H12.7z"/><path d="M24 27.5h-8c-1.4 0-2.5-1.1-2.5-2.5v-5h1v5c0 .8.7 1.5 1.5 1.5h8c.8 0 1.5-.7 1.5-1.5v-5h1v5c0 1.4-1.1 2.5-2.5 2.5z"/><path d="M19.5 17h1v10h-1z"/><path d="M20.5 17.5c-.4 0-.7-.2-.8-.3-.4-.5-.2-1.2.6-2.4.5-.8 1.2-1.6 1.5-1.8.8-.7 2-.5 2.7.2.3.4.5.9.4 1.4s-.3 1-.7 1.3c-.4.3-2.6 1.6-3.7 1.6zm2.5-4c-.2 0-.4.1-.6.2-.6.5-1.8 2.2-1.9 2.8.8 0 2.6-1 3.1-1.4.2-.2.3-.4.3-.6 0-.2-.1-.5-.2-.7-.2-.2-.4-.3-.7-.3z"/><path d="M19.5 17.5c-1.1 0-3.3-1.3-3.8-1.7-.4-.3-.6-.8-.7-1.3s.1-1 .4-1.4c.6-.8 1.9-.9 2.7-.2.3.3 1 1 1.5 1.8.8 1.2 1 1.9.6 2.4 0 .2-.3.4-.7.4zm-2.5-4c-.3 0-.5.1-.7.3-.2.2-.2.4-.2.7 0 .2.1.5.3.6.5.4 2.3 1.4 3.1 1.4-.1-.6-1.3-2.3-1.9-2.8-.2-.1-.4-.2-.6-.2z"/></svg><svg viewBox="0 0 40 40" width="64" height="64" id="gift__yellow" y="1728"><path fill="#F5B802" d="M27.3 20.5H12.7c-.7 0-1.2-.6-1.2-1.2v-1.5c0-.7.6-1.2 1.2-1.2h14.5c.7 0 1.2.6 1.2 1.2v1.5c.1.6-.5 1.2-1.1 1.2zm-14.6-3c-.1 0-.2.1-.2.2v1.5c0 .1.1.2.2.2h14.5c.1 0 .2-.1.2-.2v-1.5c0-.1-.1-.2-.2-.2H12.7z"/><path fill="#F5B802" d="M24 27.5h-8c-1.4 0-2.5-1.1-2.5-2.5v-5h1v5c0 .8.7 1.5 1.5 1.5h8c.8 0 1.5-.7 1.5-1.5v-5h1v5c0 1.4-1.1 2.5-2.5 2.5z"/><path fill="#F5B802" d="M19.5 17h1v10h-1z"/><path fill="#F5B802" d="M20.5 17.5c-.4 0-.7-.2-.8-.3-.4-.5-.2-1.2.6-2.4.5-.8 1.2-1.6 1.5-1.8.8-.7 2-.5 2.7.2.3.4.5.9.4 1.4s-.3 1-.7 1.3c-.4.3-2.6 1.6-3.7 1.6zm2.5-4c-.2 0-.4.1-.6.2-.6.5-1.8 2.2-1.9 2.8.8 0 2.6-1 3.1-1.4.2-.2.3-.4.3-.6 0-.2-.1-.5-.2-.7-.2-.2-.4-.3-.7-.3z"/><path fill="#F5B802" d="M19.5 17.5c-1.1 0-3.3-1.3-3.8-1.7-.4-.3-.6-.8-.7-1.3s.1-1 .4-1.4c.6-.8 1.9-.9 2.7-.2.3.3 1 1 1.5 1.8.8 1.2 1 1.9.6 2.4 0 .2-.3.4-.7.4zm-2.5-4c-.3 0-.5.1-.7.3-.2.2-.2.4-.2.7 0 .2.1.5.3.6.5.4 2.3 1.4 3.1 1.4-.1-.6-1.3-2.3-1.9-2.8-.2-.1-.4-.2-.6-.2z"/></svg><svg viewBox="0 0 40 40" width="64" height="64" id="hint" y="1792"><path fill="#231815" d="M20 23.5c-.3 0-.5-.2-.5-.5v-3c0-.3.2-.5.5-.5s.5.2.5.5v3c0 .3-.2.5-.5.5zM20 17.5c-.1 0-.3-.1-.4-.1-.1-.1-.1-.2-.1-.4 0-.1 0-.3.1-.4.2-.2.5-.2.7 0 .1.1.2.2.2.4 0 .1-.1.3-.1.3-.1.1-.3.2-.4.2z"/><g><path fill="#231815" d="M25.3 27.5H14.8c-1.2 0-2.3-1-2.3-2.3V14.8c0-1.2 1-2.3 2.3-2.3h10.5c1.2 0 2.3 1 2.3 2.3v10.5c-.1 1.2-1.1 2.2-2.3 2.2zm-10.5-14c-.7 0-1.3.6-1.3 1.3v10.5c0 .7.6 1.3 1.3 1.3h10.5c.7 0 1.3-.6 1.3-1.3V14.8c0-.7-.6-1.3-1.3-1.3H14.8z"/></g></svg><svg viewBox="0 0 40 40" width="64" height="64" id="hint__yellow" y="1856"><path fill="#F5B802" d="M20 23.5c-.3 0-.5-.2-.5-.5v-3c0-.3.2-.5.5-.5s.5.2.5.5v3c0 .3-.2.5-.5.5zM20 17.5c-.1 0-.3-.1-.4-.1-.1-.1-.1-.2-.1-.4 0-.1 0-.3.1-.4.2-.2.5-.2.7 0 .1.1.2.2.2.4 0 .1-.1.3-.1.3-.1.1-.3.2-.4.2z"/><g><path fill="#F5B802" d="M25.3 27.5H14.8c-1.2 0-2.3-1-2.3-2.3V14.8c0-1.2 1-2.3 2.3-2.3h10.5c1.2 0 2.3 1 2.3 2.3v10.5c-.1 1.2-1.1 2.2-2.3 2.2zm-10.5-14c-.7 0-1.3.6-1.3 1.3v10.5c0 .7.6 1.3 1.3 1.3h10.5c.7 0 1.3-.6 1.3-1.3V14.8c0-.7-.6-1.3-1.3-1.3H14.8z"/></g></svg><svg viewBox="0 0 40 40" width="64" height="64" id="home" y="1920"><path d="M26 26.4H14c-.8 0-1.5-.7-1.5-1.5v-5c0-.3-.2-.5-.5-.5h-1c-.2 0-.4-.1-.5-.3-.1-.2 0-.4.2-.6l8.4-6.5c.5-.4 1.3-.4 1.8 0l8.4 6.5c.2.1.2.4.2.6-.1.2-.3.3-.5.3h-1c-.3 0-.5.2-.5.5v5c0 .8-.7 1.5-1.5 1.5zm-13.6-8c.6.2 1.1.8 1.1 1.4v5c0 .3.2.5.5.5h12c.3 0 .5-.2.5-.5v-5c0-.7.5-1.3 1.1-1.4l-7.3-5.7c-.2-.1-.4-.1-.6 0l-7.3 5.7z"/><path d="M21.5 25.9v-5c0-.3-.2-.5-.5-.5h-2c-.3 0-.5.2-.5.5v5h-1v-5c0-.8.7-1.5 1.5-1.5h2c.8 0 1.5.7 1.5 1.5v5h-1z"/></svg><svg viewBox="0 0 40 40" width="64" height="64" id="home__yellow" y="1984"><path fill="#F5B802" d="M26 26.4H14c-.8 0-1.5-.7-1.5-1.5v-5c0-.3-.2-.5-.5-.5h-1c-.2 0-.4-.1-.5-.3-.1-.2 0-.4.2-.6l8.4-6.5c.5-.4 1.3-.4 1.8 0l8.4 6.5c.2.1.2.4.2.6-.1.2-.3.3-.5.3h-1c-.3 0-.5.2-.5.5v5c0 .8-.7 1.5-1.5 1.5zm-13.6-8c.6.2 1.1.8 1.1 1.4v5c0 .3.2.5.5.5h12c.3 0 .5-.2.5-.5v-5c0-.7.5-1.3 1.1-1.4l-7.3-5.7c-.2-.1-.4-.1-.6 0l-7.3 5.7z"/><path fill="#F5B802" d="M21.5 25.9v-5c0-.3-.2-.5-.5-.5h-2c-.3 0-.5.2-.5.5v5h-1v-5c0-.8.7-1.5 1.5-1.5h2c.8 0 1.5.7 1.5 1.5v5h-1z"/></svg><svg viewBox="0 0 40 40" width="64" height="64" id="juice" y="2048"><path d="M24.4 19.9c-1.9 0-3.5-1.6-3.5-3.5s1.6-3.5 3.5-3.5 3.5 1.6 3.5 3.5-1.6 3.5-3.5 3.5zm0-6c-1.4 0-2.5 1.1-2.5 2.5s1.1 2.5 2.5 2.5 2.5-1.1 2.5-2.5-1.2-2.5-2.5-2.5z"/><path d="M21.2 29.5H19c-1.1 0-2.1-.8-2.2-1.9l-1.3-10.3c0-.3.1-.7.3-.9.2-.3.6-.4.9-.4h6.8c.3 0 .7.1.9.4.2.3.3.6.3.9l-1.3 10.3c-.2 1.1-1.1 1.9-2.2 1.9zm-4.5-12.6c-.1 0-.1 0-.2.1 0 0-.1.1 0 .2l1.3 10.3c.1.6.6 1.1 1.2 1.1h2.2c.6 0 1.1-.5 1.2-1.1l1.3-10.3V17s-.1-.1-.2-.1h-6.8z"/><path d="M16.7 22.2h6.8v1h-6.8z"/><path d="M20.1 25.6c-.2 0-.4-.2-.5-.4l-2.1-11.8c-.1-.6-.5-1-1.1-1.2l-2.5-.7c-.3-.1-.4-.4-.3-.6.1-.3.4-.4.6-.3l2.5.7c.9.3 1.6 1 1.8 2L20.6 25c0 .3-.2.5-.5.6z"/></svg><svg viewBox="0 0 40 40" width="64" height="64" id="juice__yellow" y="2112"><path fill="#F5B802" d="M24.4 19.9c-1.9 0-3.5-1.6-3.5-3.5s1.6-3.5 3.5-3.5 3.5 1.6 3.5 3.5-1.6 3.5-3.5 3.5zm0-6c-1.4 0-2.5 1.1-2.5 2.5s1.1 2.5 2.5 2.5 2.5-1.1 2.5-2.5-1.2-2.5-2.5-2.5z"/><path fill="#F5B802" d="M21.2 29.5H19c-1.1 0-2.1-.8-2.2-1.9l-1.3-10.3c0-.3.1-.7.3-.9.2-.3.6-.4.9-.4h6.8c.3 0 .7.1.9.4.2.3.3.6.3.9l-1.3 10.3c-.2 1.1-1.1 1.9-2.2 1.9zm-4.5-12.6c-.1 0-.1 0-.2.1 0 0-.1.1 0 .2l1.3 10.3c.1.6.6 1.1 1.2 1.1h2.2c.6 0 1.1-.5 1.2-1.1l1.3-10.3V17s-.1-.1-.2-.1h-6.8z"/><path fill="#F5B802" d="M16.7 22.2h6.8v1h-6.8z"/><path fill="#F5B802" d="M20.1 25.6c-.2 0-.4-.2-.5-.4l-2.1-11.8c-.1-.6-.5-1-1.1-1.2l-2.5-.7c-.3-.1-.4-.4-.3-.6.1-.3.4-.4.6-.3l2.5.7c.9.3 1.6 1 1.8 2L20.6 25c0 .3-.2.5-.5.6z"/></svg><svg viewBox="0 0 40 40" width="64" height="64" id="megaphone" y="2176"><path fill="#231815" d="M23.1 25.3c-.1 0-.3 0-.4-.1l-9.3-2.7c-1.1-.3-1.8-1.3-1.8-2.4v-2c0-1.1.7-2.1 1.8-2.4l9.3-2.7c.9-.3 1.9.5 1.9 1.4v9.3c0 .4-.2.8-.4 1.1-.3.4-.7.5-1.1.5zm0-11.3H23l-9.3 2.7c-.6.2-1.1.8-1.1 1.4v2c0 .7.4 1.3 1.1 1.4l9.3 2.7c.2 0 .4 0 .5-.1.1-.1.1-.2.1-.4v-9.3c0-.2-.2-.4-.5-.4z"/><path fill="#231815" d="M23.8 16.1c.1-.1.3-.1.5 0l2 1c.2.1.3.3.3.4v3c0 .2-.1.4-.3.4l-2 1c-.1 0-.1.1-.2.1s-.2 0-.3-.1v-5.8zm.8 1.2v3.4l1-.5v-2.4l-1-.5zM14.9 22.2l1.7 7c.1.3-.1.5-.4.6h-.1c-.2 0-.4-.2-.5-.4l-1.7-7 1-.2z"/></svg><svg viewBox="0 0 40 40" width="64" height="64" id="megaphone__yellow" y="2240"><path fill="#F5B802" d="M23.1 25.3c-.1 0-.3 0-.4-.1l-9.3-2.7c-1.1-.3-1.8-1.3-1.8-2.4v-2c0-1.1.7-2.1 1.8-2.4l9.3-2.7c.9-.3 1.9.5 1.9 1.4v9.3c0 .4-.2.8-.4 1.1-.3.4-.7.5-1.1.5zm0-11.3H23l-9.3 2.7c-.6.2-1.1.8-1.1 1.4v2c0 .7.4 1.3 1.1 1.4l9.3 2.7c.2 0 .4 0 .5-.1.1-.1.1-.2.1-.4v-9.3c0-.2-.2-.4-.5-.4z"/><path fill="#F5B802" d="M23.8 16.1c.1-.1.3-.1.5 0l2 1c.2.1.3.3.3.4v3c0 .2-.1.4-.3.4l-2 1c-.1 0-.1.1-.2.1s-.2 0-.3-.1v-5.8zm.8 1.2v3.4l1-.5v-2.4l-1-.5zM14.9 22.2l1.7 7c.1.3-.1.5-.4.6h-.1c-.2 0-.4-.2-.5-.4l-1.7-7 1-.2z"/></svg><svg viewBox="0 0 40 40" width="64" height="64" id="message" y="2304"><path fill="#231815" d="M27 26.4c-.4 0-.7-.1-1-.4l-1.6-1.4H15c-1.9 0-3.5-1.6-3.5-3.5v-4c0-1.9 1.6-3.5 3.5-3.5h10c1.9 0 3.5 1.6 3.5 3.5v7.8c0 .8-.7 1.5-1.5 1.5zM15 14.6c-1.4 0-2.5 1.1-2.5 2.5v4c0 1.4 1.1 2.5 2.5 2.5h9.6c.1 0 .2 0 .3.1l1.8 1.6c.3.3.8.1.8-.4v-7.8c0-1.4-1.1-2.5-2.5-2.5H15z"/><path fill="#231815" d="M16 20c-.2 0-.4-.1-.5-.2-.1-.1-.2-.3-.2-.5s.1-.4.2-.5c.3-.3.8-.3 1.1 0 .1.1.2.3.2.5s-.1.4-.2.5c-.2.1-.4.2-.6.2zM20 20c-.2 0-.4-.1-.5-.2-.1-.1-.2-.3-.2-.5s.1-.4.2-.5c.3-.3.8-.3 1.1 0 .1.1.2.3.2.5s-.1.4-.2.5c-.2.1-.4.2-.6.2zM24 20c-.2 0-.4-.1-.5-.2-.1-.1-.2-.3-.2-.5s.1-.4.2-.5c.3-.3.8-.3 1.1 0 .1.1.2.3.2.5s-.1.4-.2.5c-.2.1-.4.2-.6.2z"/></svg><svg viewBox="0 0 40 40" width="64" height="64" id="message__yellow" y="2368"><path fill="#F5B802" d="M27 26.4c-.4 0-.7-.1-1-.4l-1.6-1.4H15c-1.9 0-3.5-1.6-3.5-3.5v-4c0-1.9 1.6-3.5 3.5-3.5h10c1.9 0 3.5 1.6 3.5 3.5v7.8c0 .8-.7 1.5-1.5 1.5zM15 14.6c-1.4 0-2.5 1.1-2.5 2.5v4c0 1.4 1.1 2.5 2.5 2.5h9.6c.1 0 .2 0 .3.1l1.8 1.6c.3.3.8.1.8-.4v-7.8c0-1.4-1.1-2.5-2.5-2.5H15z"/><path fill="#F5B802" d="M16 20c-.2 0-.4-.1-.5-.2-.1-.1-.2-.3-.2-.5s.1-.4.2-.5c.3-.3.8-.3 1.1 0 .1.1.2.3.2.5s-.1.4-.2.5c-.2.1-.4.2-.6.2zM20 20c-.2 0-.4-.1-.5-.2-.1-.1-.2-.3-.2-.5s.1-.4.2-.5c.3-.3.8-.3 1.1 0 .1.1.2.3.2.5s-.1.4-.2.5c-.2.1-.4.2-.6.2zM24 20c-.2 0-.4-.1-.5-.2-.1-.1-.2-.3-.2-.5s.1-.4.2-.5c.3-.3.8-.3 1.1 0 .1.1.2.3.2.5s-.1.4-.2.5c-.2.1-.4.2-.6.2z"/></svg><svg viewBox="0 0 40 40" width="64" height="64" id="pie" y="2432"><path fill="#231815" d="M20 28.5c-.6 0-1.3-.1-1.9-.2-4.6-1-7.4-5.6-6.4-10.2.9-3.9 4.3-6.6 8.3-6.6.6 0 1.3.1 1.9.2 4.6 1 7.4 5.6 6.4 10.2-.9 3.9-4.3 6.6-8.3 6.6zm0-16c-3.5 0-6.5 2.4-7.3 5.8-.9 4 1.6 8.1 5.7 9 .5.1 1.1.2 1.7.2 3.5 0 6.5-2.4 7.3-5.8.9-4-1.6-8.1-5.7-9-.6-.1-1.2-.2-1.7-.2z"/><path fill="#231815" d="M22.3 12.3l-1.6 6.9 6.4-2.2c.3-.1.5.1.6.3.1.3-.1.5-.3.6l-7.2 2.5H20c-.1 0-.2 0-.3-.1-.1-.1-.2-.3-.2-.5l1.8-7.8 1 .3z"/><g><path fill="#231815" d="M20 20.5h-7.8c-.3 0-.5-.2-.5-.5s.2-.5.5-.5H20c.3 0 .5.2.5.5s-.2.5-.5.5z"/></g></svg><svg viewBox="0 0 40 40" width="64" height="64" id="pie__yellow" y="2496"><path fill="#F5B802" d="M20 28.5c-.6 0-1.3-.1-1.9-.2-4.6-1-7.4-5.6-6.4-10.2.9-3.9 4.3-6.6 8.3-6.6.6 0 1.3.1 1.9.2 4.6 1 7.4 5.6 6.4 10.2-.9 3.9-4.3 6.6-8.3 6.6zm0-16c-3.5 0-6.5 2.4-7.3 5.8-.9 4 1.6 8.1 5.7 9 .5.1 1.1.2 1.7.2 3.5 0 6.5-2.4 7.3-5.8.9-4-1.6-8.1-5.7-9-.6-.1-1.2-.2-1.7-.2z"/><path fill="#F5B802" d="M22.3 12.3l-1.6 6.9 6.4-2.2c.3-.1.5.1.6.3.1.3-.1.5-.3.6l-7.2 2.5H20c-.1 0-.2 0-.3-.1-.1-.1-.2-.3-.2-.5l1.8-7.8 1 .3z"/><g><path fill="#F5B802" d="M20 20.5h-7.8c-.3 0-.5-.2-.5-.5s.2-.5.5-.5H20c.3 0 .5.2.5.5s-.2.5-.5.5z"/></g></svg><svg viewBox="0 0 40 40" width="64" height="64" id="wine" y="2560"><path d="M20 22.6c-1.3 0-2.6-.6-3.5-1.6-.9-1-1.3-2.3-1.2-3.6l.5-5.4c0-.3.2-.5.5-.5h7.3c.3 0 .5.2.5.5l.5 5.4c.1 1.3-.3 2.7-1.2 3.6s-2.1 1.6-3.4 1.6zm-3.2-10.1l-.5 5c-.1 1 .2 2.1.9 2.9.7.8 1.7 1.2 2.8 1.2s2.1-.4 2.8-1.2c.7-.8 1-1.8.9-2.9l-.5-5h-6.4z"/><path d="M19.5 22.1h1V28h-1z"/><path d="M22.7 28.5h-5.3c-.3 0-.5-.2-.5-.5s.2-.5.5-.5h5.3c.3 0 .5.2.5.5s-.3.5-.5.5z"/><g><path d="M23.7 17.9h-7.3c-.3 0-.5-.2-.5-.5s.2-.5.5-.5h7.3c.3 0 .5.2.5.5s-.3.5-.5.5z"/></g></svg><svg viewBox="0 0 40 40" width="64" height="64" id="wine__yellow" y="2624"><path fill="#F5B802" d="M20 22.6c-1.3 0-2.6-.6-3.5-1.6-.9-1-1.3-2.3-1.2-3.6l.5-5.4c0-.3.2-.5.5-.5h7.3c.3 0 .5.2.5.5l.5 5.4c.1 1.3-.3 2.7-1.2 3.6s-2.1 1.6-3.4 1.6zm-3.2-10.1l-.5 5c-.1 1 .2 2.1.9 2.9.7.8 1.7 1.2 2.8 1.2s2.1-.4 2.8-1.2c.7-.8 1-1.8.9-2.9l-.5-5h-6.4z"/><path fill="#F5B802" d="M19.5 22.1h1V28h-1z"/><path fill="#F5B802" d="M22.7 28.5h-5.3c-.3 0-.5-.2-.5-.5s.2-.5.5-.5h5.3c.3 0 .5.2.5.5s-.3.5-.5.5z"/><g><path fill="#F5B802" d="M23.7 17.9h-7.3c-.3 0-.5-.2-.5-.5s.2-.5.5-.5h7.3c.3 0 .5.2.5.5s-.3.5-.5.5z"/></g></svg></svg>
